<svg height="1024" node-id="1" sillyvg="true" template-height="1024" template-width="1024" version="1.1" viewBox="0 0 1024 1024" width="1024" xmlns="http://www.w3.org/2000/svg" xmlns:xlink="http://www.w3.org/1999/xlink"><defs node-id="44"><linearGradient gradientUnits="objectBoundingBox" id="linearGradient1" node-id="46" spreadMethod="pad" x1="0.5000512" x2="0.5000512" y1="0.18401884" y2="1.0001024"><stop offset="0" stop-color="#eaeef2"/><stop offset="1" stop-color="#e1e6ed"/></linearGradient><linearGradient gradientUnits="objectBoundingBox" id="linear-gradient-2" node-id="8" spreadMethod="pad" x1="0.5" x2="0.506" y1="0" y2="0.766"><stop offset="0" stop-color="#f8f8f8" stop-opacity="0.71"/><stop offset="1" stop-color="#e2e7f2" stop-opacity="0"/></linearGradient><linearGradient gradientUnits="objectBoundingBox" id="linear-gradient-3" node-id="11" spreadMethod="pad" x1="0.5" x2="0.5" y1="0" y2="0.522"><stop offset="0" stop-color="#f8f8f8"/><stop offset="1" stop-color="#f8f8f8" stop-opacity="0"/></linearGradient><linearGradient gradientUnits="objectBoundingBox" id="linear-gradient-4" node-id="14" spreadMethod="pad" x1="0.765" x2="0.338" y1="-0.019" y2="1.006"><stop offset="0" stop-color="#f8f8f8"/><stop offset="1" stop-color="#e2e7f2" stop-opacity="0"/></linearGradient><linearGradient gradientUnits="objectBoundingBox" id="linear-gradient-5" node-id="17" spreadMethod="pad" x1="0.7653618" x2="0.65030736" y1="-0.019008985" y2="0.8153854"><stop offset="0" stop-color="#f8f8f8"/><stop offset="1" stop-color="#e2e7f2" stop-opacity="0"/></linearGradient><linearGradient gradientUnits="objectBoundingBox" id="linearGradient2" node-id="77" spreadMethod="pad" x1="0.5" x2="0.5" y1="0" y2="1"><stop offset="0" stop-color="#f8f8f8"/><stop offset="1" stop-color="#e2e7f2" stop-opacity="0"/></linearGradient><linearGradient gradientUnits="objectBoundingBox" id="linear-gradient-6" node-id="18" spreadMethod="pad" x1="0.5" x2="0.5" y1="0" y2="1"><stop offset="0" stop-color="#f8f8f8"/><stop offset="1" stop-color="#e2e7f2" stop-opacity="0"/></linearGradient><linearGradient gradientUnits="objectBoundingBox" id="linearGradient3" node-id="90" spreadMethod="pad" x1="0.5" x2="0.5" y1="0" y2="1"><stop offset="0" stop-color="#f8f8f8"/><stop offset="1" stop-color="#e2e7f2"/></linearGradient><linearGradient gradientUnits="objectBoundingBox" id="linear-gradient-8" node-id="19" spreadMethod="pad" x1="0.5" x2="0.5" y1="0" y2="1"><stop offset="0" stop-color="#f8f8f8"/><stop offset="1" stop-color="#e2e7f2"/></linearGradient><linearGradient gradientUnits="objectBoundingBox" id="linear-gradient-10" node-id="22" spreadMethod="pad" x1="0.5" x2="0.5" y1="0" y2="1"><stop offset="0" stop-color="#eaeef2"/><stop offset="1" stop-color="#e1e6ed"/></linearGradient><linearGradient gradientUnits="objectBoundingBox" id="linearGradient4" node-id="109" spreadMethod="pad" x1="0.5" x2="0.5" y1="0.184" y2="1"><stop offset="0" stop-color="#eaeef2"/><stop offset="1" stop-color="#e1e6ed"/></linearGradient><linearGradient gradientUnits="objectBoundingBox" id="linear-gradient-12" node-id="23" spreadMethod="pad" x1="0.492" x2="0.492" y1="0.313" y2="1"><stop offset="0" stop-color="#eaeef2"/><stop offset="1" stop-color="#e1e6ed"/></linearGradient><linearGradient gradientUnits="objectBoundingBox" id="linear-gradient" node-id="5" spreadMethod="pad" x1="0.5" x2="0.5" y1="0.184" y2="1"><stop offset="0" stop-color="#eaeef2"/><stop offset="1" stop-color="#e1e6ed"/></linearGradient></defs><g node-id="127"><path d="M 0.00 0.00 L 1024.00 0.00 L 1024.00 1024.00 L 0.00 1024.00 Z" fill="#ffffff" fill-opacity="0" fill-rule="nonzero" group-id="1" id="矩形_354" node-id="25" stroke="none" target-height="1024" target-width="1024" target-x="0" target-y="0"/></g><g node-id="128"><path d="M 229.50 706.30 L 227.70 704.20 L 227.00 700.20 L 227.10 697.30 L 228.40 685.80 L 228.30 683.50 L 227.80 682.00 L 226.20 680.80 L 224.90 680.70 L 216.80 681.90 L 215.10 681.80 L 213.90 681.30 L 213.00 679.70 L 212.90 678.10 L 213.30 676.80 L 214.00 675.50 L 215.40 674.20 L 217.80 672.60 L 224.50 669.60 L 235.40 666.60 L 243.10 665.10 L 250.00 665.10 L 252.90 665.50 L 256.00 666.20 L 258.90 667.30 L 261.50 669.00 L 263.50 671.20 L 265.00 673.80 L 266.10 676.60 L 266.90 679.30 L 267.70 685.70 L 267.50 693.50 L 266.40 704.80 L 264.70 712.00 L 263.50 714.60 L 262.40 716.20 L 261.30 717.10 L 260.10 717.70 L 258.50 717.90 L 256.80 717.30 L 256.10 716.20 L 255.70 714.60 L 255.50 706.40 L 255.10 705.10 L 253.70 703.70 L 252.20 703.50 L 250.00 703.80 L 236.30 707.60 L 232.30 707.70 L 230.90 707.30 L 229.50 706.30 Z" fill="url(#linearGradient1)" fill-rule="nonzero" group-id="2" id="路径_8752" node-id="26" stroke="none" target-height="52.80005" target-width="54.80002" target-x="212.9" target-y="665.1"/></g><g node-id="129"><g node-id="130"><path d="M 92.80 831.10 L 85.70 795.70 L 81.80 772.80 L 78.40 747.40 L 77.00 734.30 L 76.00 721.10 L 75.30 708.10 L 75.20 695.80 L 75.90 680.20 L 76.70 673.20 L 77.90 666.30 L 79.40 660.30 L 81.20 655.10 L 83.00 651.20 L 84.90 648.00 L 87.00 645.30 L 89.30 643.10 L 92.60 640.70 L 98.90 637.50 L 101.90 636.60 L 106.10 636.00 L 110.10 636.00 L 114.10 636.60 L 118.00 637.70 L 121.80 639.30 L 125.50 641.30 L 130.80 644.90 L 135.80 649.00 L 140.40 653.50 L 148.20 662.60 L 151.10 666.60 L 157.00 675.50 L 152.90 660.30 L 149.10 643.70 L 145.20 623.40 L 141.90 601.00 L 140.80 589.50 L 140.00 570.60 L 140.70 556.60 L 141.60 549.80 L 142.80 543.60 L 144.40 537.90 L 146.00 533.70 L 147.80 530.00 L 152.10 523.80 L 154.70 521.10 L 157.60 519.00 L 160.90 517.20 L 164.50 515.90 L 168.30 515.10 L 172.00 514.90 L 175.50 515.30 L 179.10 516.20 L 182.40 517.50 L 185.80 519.30 L 189.20 521.50 L 192.60 524.20 L 196.70 528.20 L 200.80 532.90 L 208.60 543.90 L 215.90 556.40 L 220.90 566.40 L 229.80 587.30 L 233.70 597.60 L 240.20 617.00 L 245.00 633.20 L 248.90 648.30 L 247.70 633.40 L 247.40 617.90 L 247.70 609.20 L 249.20 593.60 L 251.70 581.40 L 253.50 575.40 L 255.70 569.90 L 258.20 564.60 L 260.40 560.90 L 262.90 557.50 L 265.60 554.40 L 268.60 551.70 L 271.80 549.30 L 275.40 547.30 L 279.40 545.70 L 283.80 544.60 L 287.30 544.30 L 290.90 544.60 L 294.50 545.60 L 298.20 547.30 L 301.60 549.30 L 308.80 555.20 L 312.60 559.20 L 317.10 564.60 L 321.80 570.90 L 326.60 578.10 L 335.40 593.30 L 346.00 614.60 L 357.50 641.40 L 367.50 667.20 L 378.40 699.20 L 384.30 718.10 Z" fill="url(#linear-gradient-2)" fill-rule="nonzero" group-id="3,4" id="路径_63" node-id="28" stroke="none" target-height="316.19995" target-width="309.09998" target-x="75.2" target-y="514.9"/></g><g node-id="131"><path d="M 1002.00 809.00 L 1001.70 813.30 L 1001.00 817.70 L 999.70 822.00 L 997.90 826.40 L 995.50 830.90 L 992.50 835.50 L 988.60 840.30 L 984.00 845.20 L 978.50 850.30 L 972.10 855.40 L 964.70 860.70 L 949.40 869.80 L 940.50 874.50 L 919.70 883.90 L 906.40 889.10 L 891.90 894.30 L 875.90 899.40 L 858.50 904.50 L 840.00 909.30 L 820.40 913.90 L 799.60 918.30 L 778.80 922.20 L 757.00 925.90 L 734.30 929.30 L 687.90 935.00 L 639.30 939.40 L 589.10 942.30 L 538.00 943.80 L 512.00 944.00 L 486.00 943.80 L 434.90 942.30 L 384.70 939.40 L 336.10 935.00 L 289.70 929.30 L 267.00 925.90 L 245.20 922.20 L 224.40 918.30 L 203.60 913.90 L 184.00 909.30 L 165.50 904.50 L 148.10 899.40 L 132.10 894.30 L 117.60 889.10 L 104.30 883.90 L 83.50 874.50 L 74.60 869.80 L 59.30 860.70 L 51.90 855.40 L 45.50 850.30 L 40.00 845.20 L 35.40 840.30 L 31.50 835.50 L 28.50 830.90 L 26.10 826.40 L 24.30 822.00 L 23.00 817.70 L 22.30 813.30 L 22.00 809.00 L 22.30 804.70 L 23.00 800.30 L 24.30 796.00 L 26.10 791.60 L 28.50 787.10 L 31.50 782.50 L 35.40 777.70 L 40.00 772.80 L 45.50 767.70 L 51.90 762.60 L 59.30 757.30 L 74.60 748.20 L 83.50 743.50 L 104.30 734.10 L 117.60 728.90 L 132.10 723.70 L 148.10 718.60 L 165.50 713.50 L 184.00 708.70 L 203.60 704.10 L 224.40 699.70 L 245.20 695.80 L 267.00 692.10 L 289.70 688.70 L 336.10 683.00 L 384.70 678.60 L 434.90 675.70 L 486.00 674.20 L 512.00 674.00 L 538.00 674.20 L 589.10 675.70 L 639.30 678.60 L 687.90 683.00 L 734.30 688.70 L 757.00 692.10 L 778.80 695.80 L 799.60 699.70 L 820.40 704.10 L 840.00 708.70 L 858.50 713.50 L 875.90 718.60 L 891.90 723.70 L 906.40 728.90 L 919.70 734.10 L 940.50 743.50 L 949.40 748.20 L 964.70 757.30 L 972.10 762.60 L 978.50 767.70 L 984.00 772.80 L 988.60 777.70 L 992.50 782.50 L 995.50 787.10 L 997.90 791.60 L 999.70 796.00 L 1001.00 800.30 L 1001.70 804.70 L 1002.00 809.00 Z" fill="url(#linear-gradient-3)" fill-rule="nonzero" group-id="3,5" id="椭圆_16" node-id="29" stroke="none" target-height="270" target-width="980" target-x="22" target-y="674"/></g><g node-id="132"><path d="M 806.90 671.90 L 812.00 669.00 L 815.90 666.20 L 818.80 663.50 L 821.50 660.60 L 823.50 657.80 L 824.90 655.20 L 826.50 651.10 L 829.30 638.30 L 831.00 634.80 L 832.30 633.50 L 834.10 632.20 L 836.60 631.10 L 847.50 627.30 L 852.20 625.30 L 856.10 623.00 L 858.50 621.30 L 862.30 617.20 L 863.70 614.90 L 864.90 612.10 L 865.80 608.80 L 867.20 614.20 L 873.60 632.90 L 874.60 637.50 L 874.80 640.70 L 874.20 647.60 L 873.30 651.10 L 871.80 655.10 L 867.80 663.30 L 865.40 670.70 L 864.40 676.30 L 863.80 681.90 L 862.60 698.20 L 861.00 706.70 L 858.40 713.00 L 856.50 715.90 L 854.10 718.80 L 851.20 721.60 L 847.80 724.10 L 844.30 726.10 L 840.50 727.70 L 836.60 729.00 L 828.60 730.60 L 822.50 731.20 L 811.30 731.10 L 806.70 730.60 L 796.80 729.00 L 793.40 720.60 L 791.00 711.70 L 790.30 706.70 L 789.90 701.30 L 790.50 694.10 L 791.40 690.50 L 792.60 687.00 L 794.30 683.60 L 796.60 680.30 L 799.30 677.30 L 802.70 674.50 L 806.90 671.90 Z" fill="url(#linear-gradient-4)" fill-rule="nonzero" group-id="3,6" id="路径_61" node-id="30" stroke="none" target-height="122.400024" target-width="84.89996" target-x="789.9" target-y="608.8"/></g><g node-id="133"><path d="M 880.90 706.30 L 888.10 705.40 L 890.80 704.70 L 895.30 702.60 L 899.20 699.30 L 905.30 691.80 L 908.10 690.20 L 911.40 690.10 L 921.60 691.10 L 927.30 690.70 L 929.70 690.10 L 931.90 689.00 L 934.00 687.40 L 936.10 685.10 L 935.20 689.80 L 933.70 702.30 L 932.10 707.40 L 930.70 710.00 L 928.90 712.40 L 926.50 714.90 L 920.60 719.60 L 916.30 724.30 L 913.70 728.20 L 906.90 739.80 L 903.40 744.20 L 899.10 747.80 L 896.40 749.10 L 893.20 750.20 L 889.90 750.70 L 886.50 750.80 L 883.20 750.50 L 878.20 749.40 L 873.50 747.80 L 865.30 743.70 L 857.60 738.40 L 857.80 733.70 L 859.00 726.60 L 860.20 722.60 L 861.90 718.70 L 864.20 715.00 L 866.00 712.70 L 868.30 710.70 L 870.80 709.00 L 873.70 707.60 L 877.00 706.70 L 880.90 706.30 Z" fill="url(#linear-gradient-5)" fill-rule="nonzero" group-id="3,7" id="路径_62" node-id="31" stroke="none" target-height="65.70001" target-width="78.5" target-x="857.6" target-y="685.1"/></g><g node-id="134"><path d="M 764.90 247.40 L 760.30 247.20 L 756.00 246.50 L 751.90 245.40 L 747.90 243.90 L 744.00 242.00 L 740.40 239.90 L 737.10 237.30 L 731.20 231.40 L 728.70 228.00 L 726.50 224.40 L 724.60 220.60 L 723.20 216.60 L 722.10 212.40 L 721.40 208.10 L 721.20 203.60 L 721.40 199.00 L 722.10 194.70 L 723.20 190.50 L 724.60 186.50 L 726.50 182.70 L 728.70 179.10 L 731.20 175.70 L 734.00 172.60 L 737.10 169.80 L 740.40 167.30 L 744.00 165.10 L 747.90 163.20 L 751.90 161.70 L 756.00 160.60 L 760.30 159.90 L 764.90 159.70 L 773.10 160.50 L 781.10 162.80 L 781.20 155.70 L 781.70 151.90 L 784.00 144.70 L 787.50 138.10 L 792.30 132.20 L 798.20 127.40 L 805.00 123.70 L 812.50 121.50 L 820.00 120.80 L 823.80 121.00 L 831.20 122.40 L 838.20 125.30 L 844.50 129.50 L 847.50 132.10 L 852.40 138.10 L 856.00 144.80 L 857.30 148.40 L 858.80 155.70 L 858.80 163.30 L 858.30 167.10 L 856.10 174.50 L 862.40 171.40 L 869.20 169.60 L 872.70 169.10 L 880.30 169.20 L 887.90 170.70 L 891.40 172.10 L 896.00 174.40 L 900.10 177.20 L 903.80 180.50 L 907.10 184.30 L 909.90 188.40 L 912.20 192.90 L 914.50 200.20 L 915.10 204.10 L 915.30 208.20 L 915.10 212.20 L 913.50 219.80 L 912.20 223.40 L 909.90 228.00 L 907.10 232.10 L 903.80 235.90 L 900.10 239.20 L 896.00 242.00 L 891.40 244.30 L 887.90 245.60 L 880.30 247.20 L 876.20 247.40 Z" fill="url(#linearGradient2)" fill-rule="nonzero" group-id="3,8" id="联合_38" node-id="32" stroke="none" target-height="126.59999" target-width="194.09998" target-x="721.2" target-y="120.8"/></g><g node-id="135"><path d="M 146.10 301.80 L 142.20 301.60 L 134.90 300.00 L 131.50 298.70 L 127.20 296.50 L 123.20 293.80 L 119.60 290.60 L 116.50 287.00 L 113.80 283.00 L 111.60 278.70 L 110.40 275.20 L 108.90 268.00 L 108.70 264.10 L 108.90 260.20 L 109.50 256.40 L 111.60 249.40 L 113.80 245.10 L 116.50 241.10 L 119.60 237.50 L 123.20 234.30 L 127.20 231.60 L 131.50 229.40 L 138.50 227.20 L 146.10 226.30 L 150.80 226.60 L 155.40 227.50 L 160.00 229.00 L 160.00 222.30 L 160.70 218.50 L 161.80 214.70 L 163.30 211.20 L 165.20 207.80 L 167.50 204.70 L 170.10 201.80 L 173.10 199.30 L 176.40 197.10 L 180.00 195.30 L 183.70 193.90 L 187.50 193.00 L 191.30 192.60 L 195.20 192.60 L 199.00 193.00 L 202.80 193.90 L 206.50 195.30 L 210.10 197.10 L 213.40 199.30 L 216.40 201.80 L 219.00 204.70 L 221.30 207.80 L 223.20 211.20 L 224.70 214.70 L 225.80 218.50 L 226.50 222.30 L 226.70 226.30 L 226.40 230.70 L 225.60 234.90 L 224.20 239.10 L 228.20 237.00 L 232.50 235.50 L 236.90 234.60 L 241.40 234.30 L 246.00 234.60 L 250.30 235.50 L 254.50 237.00 L 258.30 239.00 L 261.90 241.40 L 265.10 244.30 L 267.90 247.50 L 270.30 251.10 L 272.20 255.00 L 273.70 259.10 L 274.50 263.40 L 274.90 268.00 L 274.50 272.60 L 273.70 277.00 L 272.20 281.10 L 270.30 285.00 L 267.90 288.60 L 265.10 291.80 L 261.90 294.70 L 258.30 297.10 L 254.50 299.10 L 250.30 300.50 L 246.00 301.40 L 241.40 301.80 Z" fill="url(#linear-gradient-6)" fill-rule="nonzero" group-id="3,9" id="联合_39" node-id="33" stroke="none" target-height="109.19998" target-width="166.2" target-x="108.7" target-y="192.6"/></g><g node-id="136"><g node-id="138"><path d="M 423.30 413.60 L 415.80 413.60 L 410.00 414.10 L 403.70 415.10 L 396.20 416.90 L 385.90 420.50 L 380.30 423.20 L 374.90 426.20 L 369.50 429.90 L 364.10 434.40 L 360.30 438.00 L 356.60 442.10 L 353.00 446.80 L 349.50 452.00 L 346.50 457.30 L 343.60 463.20 L 341.00 469.90 L 338.60 477.30 L 336.70 484.70 L 335.20 492.80 L 334.00 501.90 L 333.20 511.90 L 332.90 521.60 L 333.10 532.30 L 333.80 544.00 L 335.20 557.00 L 338.60 552.10 L 342.00 547.80 L 345.60 544.00 L 349.30 540.60 L 354.60 536.50 L 360.00 533.10 L 365.50 530.40 L 371.10 528.20 L 376.70 526.40 L 382.20 525.10 L 387.70 524.20 L 397.80 523.30 L 405.00 523.40 L 411.00 523.70 L 416.40 524.40 L 423.30 525.70 Z" fill="url(#linearGradient3)" fill-rule="nonzero" group-id="3,10,12" id="路径_8751" node-id="35" stroke="none" target-height="143.4" target-width="90.399994" target-x="332.9" target-y="413.6"/></g><g node-id="139"><path d="M 630.30 413.60 L 637.80 413.60 L 643.60 414.10 L 649.90 415.10 L 657.40 416.90 L 667.70 420.50 L 673.30 423.10 L 678.70 426.20 L 684.10 429.90 L 689.50 434.40 L 693.30 438.00 L 697.00 442.10 L 700.50 446.80 L 704.00 452.00 L 707.10 457.30 L 709.90 463.20 L 712.60 469.90 L 715.00 477.30 L 716.90 484.70 L 718.40 492.80 L 719.60 501.80 L 720.40 511.90 L 720.70 521.60 L 720.50 532.30 L 719.70 544.00 L 718.40 557.00 L 715.00 552.10 L 711.50 547.80 L 708.00 543.90 L 704.30 540.60 L 698.90 536.50 L 693.60 533.10 L 688.10 530.40 L 682.40 528.10 L 676.90 526.40 L 671.40 525.10 L 665.90 524.20 L 655.70 523.30 L 648.50 523.40 L 642.60 523.70 L 637.20 524.40 L 630.30 525.70 Z" fill="url(#linear-gradient-8)" fill-rule="nonzero" group-id="3,10,13" id="路径_8747" node-id="36" stroke="none" target-height="143.4" target-width="90.400024" target-x="630.3" target-y="413.6"/></g><g node-id="140"><path d="M 623.80 598.40 L 429.70 598.40 L 422.50 585.40 L 418.00 576.00 L 413.90 566.20 L 410.20 556.10 L 406.90 545.50 L 403.90 534.50 L 401.30 522.40 L 399.10 510.20 L 397.50 498.00 L 396.30 485.70 L 395.60 473.30 L 395.40 460.90 L 395.70 452.00 L 396.40 443.20 L 397.50 434.40 L 399.10 425.60 L 401.00 416.90 L 404.10 405.80 L 407.60 394.80 L 411.50 384.00 L 415.90 373.30 L 421.60 360.80 L 428.10 347.90 L 435.50 334.60 L 443.20 321.50 L 451.80 308.10 L 461.10 294.30 L 471.80 279.50 L 482.90 265.10 L 494.40 251.00 L 506.30 237.10 L 517.00 225.30 L 526.90 215.10 L 537.20 225.90 L 547.40 237.20 L 559.30 251.10 L 570.80 265.30 L 581.90 279.80 L 592.60 294.60 L 602.00 308.40 L 610.50 321.80 L 618.30 334.90 L 625.60 348.20 L 632.10 361.10 L 637.80 373.60 L 642.20 384.30 L 646.10 395.10 L 649.60 406.00 L 652.70 417.10 L 654.70 425.80 L 656.20 434.50 L 657.30 443.20 L 658.00 452.10 L 658.30 460.90 L 658.10 473.80 L 657.40 486.50 L 656.10 499.30 L 654.30 511.90 L 652.00 524.50 L 649.10 537.00 L 645.90 548.40 L 642.30 559.20 L 638.40 569.60 L 633.90 579.70 L 629.00 589.30 L 623.80 598.40 Z" fill="url(#linear-gradient-10)" fill-rule="nonzero" group-id="3,10,14" id="减去_9" node-id="37" stroke="none" target-height="383.30002" target-width="262.9" target-x="395.4" target-y="215.1"/></g><g node-id="141"><path d="M 430.80 342.90 L 437.90 330.40 L 445.30 318.20 L 453.00 306.10 L 461.10 294.30 L 471.80 279.50 L 482.90 265.10 L 494.40 251.00 L 506.30 237.10 L 517.00 225.30 L 526.90 215.10 L 537.20 225.90 L 547.40 237.20 L 559.30 251.10 L 570.80 265.30 L 581.90 279.80 L 592.60 294.60 L 600.60 306.30 L 615.70 330.50 L 622.70 342.90 Z" fill="#d7dbe1" fill-rule="nonzero" group-id="3,10,15" id="交叉_4" node-id="38" stroke="none" target-height="127.79999" target-width="191.90002" target-x="430.8" target-y="215.1"/></g><g node-id="142"><path d="M 527.20 768.80 L 522.50 768.50 L 517.90 766.60 L 515.10 764.60 L 512.20 762.00 L 509.20 758.70 L 505.20 753.40 L 501.20 747.30 L 486.30 721.80 L 482.80 716.20 L 479.50 711.80 L 477.00 709.20 L 474.80 707.50 L 472.80 706.40 L 471.10 706.00 L 467.90 706.40 L 464.20 708.60 L 462.10 710.50 L 456.80 716.80 L 447.50 729.20 L 445.40 731.60 L 441.30 734.90 L 439.10 735.90 L 437.00 736.30 L 434.90 736.00 L 431.90 734.20 L 428.20 729.90 L 426.50 726.70 L 425.20 723.00 L 424.30 718.50 L 423.80 713.90 L 423.90 703.40 L 424.80 695.10 L 426.20 686.20 L 428.10 677.40 L 432.60 660.10 L 439.50 638.50 L 444.30 625.60 L 610.10 625.60 L 614.90 638.50 L 621.80 660.10 L 626.40 677.40 L 628.20 686.20 L 629.60 695.10 L 630.50 703.40 L 630.60 713.90 L 630.20 718.50 L 629.20 722.90 L 627.90 726.70 L 626.20 729.90 L 622.60 734.20 L 619.50 735.90 L 617.40 736.30 L 615.30 735.90 L 613.10 734.90 L 609.10 731.60 L 606.90 729.20 L 597.60 716.80 L 592.40 710.50 L 590.20 708.60 L 586.60 706.40 L 583.30 706.00 L 581.60 706.40 L 579.60 707.40 L 577.50 709.10 L 575.10 711.60 L 571.90 715.80 L 568.40 721.20 L 554.00 746.10 L 550.10 752.10 L 543.40 760.80 L 540.60 763.50 L 535.60 767.10 L 531.10 768.70 L 527.20 768.80 Z" fill="url(#linearGradient4)" fill-rule="nonzero" group-id="3,10,16" id="联合_45" node-id="39" stroke="none" target-height="143.20001" target-width="206.79999" target-x="423.8" target-y="625.6"/></g><g node-id="143"><path d="M 527.20 490.10 L 518.60 489.40 L 510.40 487.20 L 505.30 485.00 L 500.50 482.20 L 496.00 479.00 L 491.90 475.20 L 488.30 471.10 L 485.10 466.50 L 481.40 458.90 L 478.90 450.60 L 477.90 442.00 L 478.50 433.60 L 479.60 428.10 L 481.30 422.80 L 483.60 417.80 L 486.50 413.10 L 489.80 408.70 L 493.70 404.60 L 496.90 401.90 L 504.00 397.30 L 508.00 395.40 L 512.80 393.70 L 517.60 392.50 L 522.40 391.80 L 527.20 391.60 L 532.00 391.80 L 536.70 392.50 L 541.20 393.70 L 545.70 395.30 L 550.00 397.30 L 554.00 399.60 L 557.80 402.40 L 561.40 405.60 L 564.70 409.10 L 567.60 412.90 L 570.20 417.10 L 572.40 421.70 L 574.20 426.50 L 575.40 431.30 L 576.10 436.10 L 576.30 440.90 L 576.10 445.70 L 575.40 450.30 L 574.30 454.90 L 572.80 459.40 L 570.80 463.70 L 568.40 467.70 L 565.70 471.60 L 562.50 475.20 L 559.00 478.50 L 555.20 481.40 L 551.00 484.00 L 546.40 486.20 L 541.70 487.90 L 537.00 489.20 L 532.20 489.90 L 527.20 490.10 Z M 527.20 417.40 L 524.00 417.60 L 521.00 418.20 L 518.10 419.20 L 515.40 420.60 L 510.60 424.20 L 507.00 429.00 L 505.60 431.70 L 504.60 434.60 L 504.00 437.60 L 503.80 440.80 L 504.00 444.00 L 504.60 447.10 L 507.00 452.70 L 508.70 455.10 L 512.90 459.40 L 518.10 462.40 L 521.00 463.40 L 524.00 464.00 L 527.20 464.30 L 530.40 464.00 L 533.50 463.40 L 536.30 462.40 L 539.10 461.00 L 543.80 457.40 L 547.40 452.70 L 548.80 449.90 L 549.80 447.10 L 550.40 444.00 L 550.70 440.80 L 550.40 437.60 L 549.80 434.60 L 548.80 431.70 L 545.80 426.50 L 541.50 422.30 L 539.10 420.60 L 533.50 418.20 L 530.40 417.60 L 527.20 417.40 Z" fill="#ffffff" fill-rule="nonzero" group-id="3,10,17" id="减去_12" node-id="40" stroke="none" target-height="98.5" target-width="98.399994" target-x="477.9" target-y="391.6"/></g><path d="M 444.80 580.90 L 609.60 580.90 L 612.70 581.20 L 615.60 582.00 L 618.20 583.20 L 620.60 584.90 L 622.60 586.90 L 624.30 589.30 L 625.50 592.00 L 626.30 594.80 L 626.60 597.90 L 626.60 618.70 L 626.30 621.80 L 625.50 624.60 L 624.30 627.30 L 622.60 629.60 L 620.60 631.70 L 618.20 633.40 L 615.60 634.60 L 612.70 635.40 L 609.60 635.70 L 444.80 635.70 L 441.70 635.40 L 438.90 634.60 L 436.30 633.40 L 433.90 631.70 L 431.80 629.60 L 430.20 627.30 L 428.90 624.60 L 428.10 621.80 L 427.80 618.70 L 427.80 597.90 L 428.10 594.80 L 428.90 592.00 L 430.20 589.30 L 431.80 586.90 L 433.90 584.90 L 436.30 583.20 L 438.90 582.00 L 441.70 581.20 L 444.80 580.90 Z" fill="url(#linear-gradient-12)" fill-rule="nonzero" group-id="3,10,18" id="矩形_351" node-id="41" stroke="none" target-height="54.799988" target-width="198.79999" target-x="427.8" target-y="580.9"/></g><path d="M 867.20 500.50 L 865.40 500.70 L 863.70 500.40 L 861.80 499.60 L 859.10 497.70 L 856.30 495.10 L 846.00 483.90 L 844.40 482.50 L 841.70 481.20 L 840.40 481.30 L 839.20 481.90 L 838.00 482.90 L 832.20 492.10 L 830.20 494.00 L 828.10 494.40 L 826.80 493.90 L 825.20 492.60 L 824.20 491.20 L 823.60 489.30 L 823.40 486.90 L 823.90 483.10 L 825.10 478.50 L 826.70 473.90 L 831.00 464.60 L 838.20 451.60 L 841.60 447.50 L 847.00 442.20 L 852.80 438.50 L 857.80 436.80 L 863.00 436.80 L 869.30 438.70 L 875.60 442.10 L 879.70 445.00 L 890.60 455.10 L 897.50 462.70 L 900.50 466.60 L 903.00 470.50 L 904.60 474.00 L 905.20 476.40 L 905.20 478.30 L 904.70 480.00 L 903.60 481.70 L 902.60 482.60 L 901.50 482.90 L 900.40 482.80 L 897.90 481.70 L 889.50 474.80 L 888.10 474.10 L 886.80 473.90 L 885.50 474.30 L 883.40 476.30 L 882.30 478.00 L 876.20 491.50 L 874.40 494.80 L 872.50 497.50 L 871.00 498.90 L 869.50 499.90 L 867.20 500.50 Z" fill="url(#linear-gradient)" fill-rule="nonzero" group-id="3,11" id="路径_8753" node-id="42" stroke="none" target-height="63.900024" target-width="81.79999" target-x="823.4" target-y="436.8"/></g></svg>